<mxfile host="app.diagrams.net" agent="Mozilla/5.0 (Windows NT 10.0; Win64; x64) AppleWebKit/537.36 (KHTML, like Gecko) Chrome/130.0.0.0 Safari/537.36" version="24.8.3">
  <diagram name="Page-1" id="e7e014a7-5840-1c2e-5031-d8a46d1fe8dd">
    <mxGraphModel dx="897" dy="556" grid="1" gridSize="10" guides="1" tooltips="1" connect="1" arrows="1" fold="1" page="1" pageScale="1" pageWidth="1169" pageHeight="826" background="none" math="0" shadow="0">
      <root>
        <mxCell id="0" />
        <mxCell id="1" parent="0" />
        <mxCell id="2" value="User" style="swimlane;whiteSpace=wrap" parent="1" vertex="1">
          <mxGeometry x="160" y="50" width="280" height="672" as="geometry" />
        </mxCell>
        <mxCell id="3EZGCJM8jiS25kYGgKkf-41" value="In the Home Page" style="ellipse;whiteSpace=wrap;html=1;" parent="2" vertex="1">
          <mxGeometry x="85" y="32" width="110" height="58" as="geometry" />
        </mxCell>
        <mxCell id="3EZGCJM8jiS25kYGgKkf-42" value="Clicks on View Account Details" style="ellipse;whiteSpace=wrap;html=1;" parent="2" vertex="1">
          <mxGeometry x="85" y="102" width="110" height="58" as="geometry" />
        </mxCell>
        <mxCell id="3EZGCJM8jiS25kYGgKkf-64" value="" style="endArrow=classic;html=1;rounded=0;exitX=0.5;exitY=1;exitDx=0;exitDy=0;" parent="2" source="3EZGCJM8jiS25kYGgKkf-41" target="3EZGCJM8jiS25kYGgKkf-42" edge="1">
          <mxGeometry width="50" height="50" relative="1" as="geometry">
            <mxPoint x="584.73" y="220" as="sourcePoint" />
            <mxPoint x="584.5" y="266.38" as="targetPoint" />
          </mxGeometry>
        </mxCell>
        <mxCell id="3EZGCJM8jiS25kYGgKkf-68" value="See Error message" style="ellipse;whiteSpace=wrap;html=1;" parent="2" vertex="1">
          <mxGeometry x="65.5" y="532" width="110" height="58" as="geometry" />
        </mxCell>
        <mxCell id="3EZGCJM8jiS25kYGgKkf-69" value="See account.php" style="ellipse;whiteSpace=wrap;html=1;" parent="2" vertex="1">
          <mxGeometry x="65.5" y="604" width="110" height="58" as="geometry" />
        </mxCell>
        <mxCell id="3" value="System" style="swimlane;whiteSpace=wrap" parent="1" vertex="1">
          <mxGeometry x="440" y="50" width="280" height="672" as="geometry" />
        </mxCell>
        <mxCell id="3EZGCJM8jiS25kYGgKkf-46" value="" style="endArrow=classic;html=1;rounded=0;exitX=0.543;exitY=0.89;exitDx=0;exitDy=0;exitPerimeter=0;" parent="3" edge="1">
          <mxGeometry width="50" height="50" relative="1" as="geometry">
            <mxPoint x="-58.76999999999998" y="102" as="sourcePoint" />
            <mxPoint x="91" y="102" as="targetPoint" />
          </mxGeometry>
        </mxCell>
        <mxCell id="3EZGCJM8jiS25kYGgKkf-43" value="Display Account.php" style="ellipse;whiteSpace=wrap;html=1;" parent="3" vertex="1">
          <mxGeometry x="101" y="72" width="110" height="58" as="geometry" />
        </mxCell>
        <mxCell id="3EZGCJM8jiS25kYGgKkf-51" value="" style="endArrow=classic;html=1;rounded=0;exitX=0.5;exitY=1;exitDx=0;exitDy=0;entryX=1;entryY=0.5;entryDx=0;entryDy=0;" parent="3" source="3EZGCJM8jiS25kYGgKkf-43" target="3EZGCJM8jiS25kYGgKkf-50" edge="1">
          <mxGeometry width="50" height="50" relative="1" as="geometry">
            <mxPoint x="71" y="100.5" as="sourcePoint" />
            <mxPoint x="220.76999999999998" y="100.5" as="targetPoint" />
            <Array as="points">
              <mxPoint x="156" y="192" />
            </Array>
          </mxGeometry>
        </mxCell>
        <mxCell id="3EZGCJM8jiS25kYGgKkf-50" value="Clicks on Add Permit" style="ellipse;whiteSpace=wrap;html=1;" parent="3" vertex="1">
          <mxGeometry x="-189.5" y="162" width="110" height="58" as="geometry" />
        </mxCell>
        <mxCell id="3EZGCJM8jiS25kYGgKkf-54" value="" style="endArrow=classic;html=1;rounded=0;exitX=0.5;exitY=1;exitDx=0;exitDy=0;" parent="3" edge="1">
          <mxGeometry width="50" height="50" relative="1" as="geometry">
            <mxPoint x="-124" y="220" as="sourcePoint" />
            <mxPoint x="81" y="282" as="targetPoint" />
            <Array as="points">
              <mxPoint x="-124" y="282" />
            </Array>
          </mxGeometry>
        </mxCell>
        <mxCell id="3EZGCJM8jiS25kYGgKkf-53" value="Display Permit-add.php" style="ellipse;whiteSpace=wrap;html=1;" parent="3" vertex="1">
          <mxGeometry x="81" y="252" width="110" height="58" as="geometry" />
        </mxCell>
        <mxCell id="3EZGCJM8jiS25kYGgKkf-56" value="" style="endArrow=classic;html=1;rounded=0;exitX=0.5;exitY=1;exitDx=0;exitDy=0;entryX=1;entryY=0.5;entryDx=0;entryDy=0;" parent="3" edge="1">
          <mxGeometry width="50" height="50" relative="1" as="geometry">
            <mxPoint x="136" y="310" as="sourcePoint" />
            <mxPoint x="-99" y="371" as="targetPoint" />
            <Array as="points">
              <mxPoint x="136" y="372" />
            </Array>
          </mxGeometry>
        </mxCell>
        <mxCell id="3EZGCJM8jiS25kYGgKkf-55" value="Add Permit" style="ellipse;whiteSpace=wrap;html=1;" parent="3" vertex="1">
          <mxGeometry x="-224.5" y="342" width="110" height="58" as="geometry" />
        </mxCell>
        <mxCell id="3EZGCJM8jiS25kYGgKkf-59" value="submit Form" style="ellipse;whiteSpace=wrap;html=1;" parent="3" vertex="1">
          <mxGeometry x="-224.5" y="412" width="110" height="58" as="geometry" />
        </mxCell>
        <mxCell id="3EZGCJM8jiS25kYGgKkf-62" value="Connects to&lt;span style=&quot;color: rgba(0, 0, 0, 0); font-family: monospace; font-size: 0px; text-align: start; text-wrap-mode: nowrap;&quot;&gt;%3CmxGraphModel%3E%3Croot%3E%3CmxCell%20id%3D%220%22%2F%3E%3CmxCell%20id%3D%221%22%20parent%3D%220%22%2F%3E%3CmxCell%20id%3D%222%22%20value%3D%22submit%20Form%22%20style%3D%22ellipse%3BwhiteSpace%3Dwrap%3Bhtml%3D1%3B%22%20vertex%3D%221%22%20parent%3D%221%22%3E%3CmxGeometry%20x%3D%22220%22%20y%3D%22620%22%20width%3D%22110%22%20height%3D%2258%22%20as%3D%22geometry%22%2F%3E%3C%2FmxCell%3E%3C%2Froot%3E%3C%2FmxGraphModel%3E&lt;/span&gt;&amp;nbsp;DB" style="ellipse;whiteSpace=wrap;html=1;" parent="3" vertex="1">
          <mxGeometry x="81" y="402" width="110" height="58" as="geometry" />
        </mxCell>
        <mxCell id="3EZGCJM8jiS25kYGgKkf-63" value="Updates Driver info" style="ellipse;whiteSpace=wrap;html=1;" parent="3" vertex="1">
          <mxGeometry x="85.5" y="470" width="110" height="58" as="geometry" />
        </mxCell>
        <mxCell id="3EZGCJM8jiS25kYGgKkf-66" value="ERROR?" style="rhombus;whiteSpace=wrap;html=1;" parent="3" vertex="1">
          <mxGeometry x="80.5" y="542" width="119" height="62" as="geometry" />
        </mxCell>
        <mxCell id="3EZGCJM8jiS25kYGgKkf-67" value="Display account.php&amp;nbsp;" style="ellipse;whiteSpace=wrap;html=1;" parent="3" vertex="1">
          <mxGeometry x="86" y="608" width="110" height="58" as="geometry" />
        </mxCell>
        <mxCell id="3EZGCJM8jiS25kYGgKkf-70" value="" style="endArrow=classic;html=1;rounded=0;exitX=0;exitY=0.5;exitDx=0;exitDy=0;entryX=-0.009;entryY=0.628;entryDx=0;entryDy=0;entryPerimeter=0;" parent="3" source="3EZGCJM8jiS25kYGgKkf-62" target="3EZGCJM8jiS25kYGgKkf-63" edge="1">
          <mxGeometry width="50" height="50" relative="1" as="geometry">
            <mxPoint x="-4.5" y="462" as="sourcePoint" />
            <mxPoint x="45.5" y="412" as="targetPoint" />
            <Array as="points">
              <mxPoint x="35.5" y="432" />
              <mxPoint x="35.5" y="506" />
            </Array>
          </mxGeometry>
        </mxCell>
        <mxCell id="3EZGCJM8jiS25kYGgKkf-71" value="" style="endArrow=classic;html=1;rounded=0;exitX=1;exitY=0.5;exitDx=0;exitDy=0;" parent="3" source="3EZGCJM8jiS25kYGgKkf-63" edge="1">
          <mxGeometry width="50" height="50" relative="1" as="geometry">
            <mxPoint x="82" y="502" as="sourcePoint" />
            <mxPoint x="195.5" y="572" as="targetPoint" />
            <Array as="points">
              <mxPoint x="235.5" y="499" />
              <mxPoint x="235.5" y="542" />
              <mxPoint x="235.5" y="582" />
            </Array>
          </mxGeometry>
        </mxCell>
        <mxCell id="wZWzXX4lpNGMMSXKNNM5-3" value="" style="endArrow=classic;html=1;rounded=0;exitX=0.5;exitY=1;exitDx=0;exitDy=0;entryX=0.5;entryY=0;entryDx=0;entryDy=0;" edge="1" parent="3" source="3EZGCJM8jiS25kYGgKkf-55" target="3EZGCJM8jiS25kYGgKkf-59">
          <mxGeometry width="50" height="50" relative="1" as="geometry">
            <mxPoint y="240" as="sourcePoint" />
            <mxPoint x="50" y="190" as="targetPoint" />
          </mxGeometry>
        </mxCell>
        <mxCell id="wZWzXX4lpNGMMSXKNNM5-4" value="" style="endArrow=classic;html=1;rounded=0;exitX=1;exitY=0.5;exitDx=0;exitDy=0;entryX=1;entryY=0.5;entryDx=0;entryDy=0;" edge="1" parent="3" source="3EZGCJM8jiS25kYGgKkf-66" target="3EZGCJM8jiS25kYGgKkf-67">
          <mxGeometry width="50" height="50" relative="1" as="geometry">
            <mxPoint y="560" as="sourcePoint" />
            <mxPoint x="50" y="510" as="targetPoint" />
            <Array as="points">
              <mxPoint x="250" y="573" />
              <mxPoint x="250" y="640" />
              <mxPoint x="200" y="640" />
            </Array>
          </mxGeometry>
        </mxCell>
        <mxCell id="wZWzXX4lpNGMMSXKNNM5-5" value="" style="endArrow=classic;html=1;rounded=0;exitX=1;exitY=0.5;exitDx=0;exitDy=0;entryX=0;entryY=0.5;entryDx=0;entryDy=0;" edge="1" parent="3" source="3EZGCJM8jiS25kYGgKkf-59" target="3EZGCJM8jiS25kYGgKkf-62">
          <mxGeometry width="50" height="50" relative="1" as="geometry">
            <mxPoint y="290" as="sourcePoint" />
            <mxPoint x="50" y="240" as="targetPoint" />
          </mxGeometry>
        </mxCell>
        <mxCell id="wZWzXX4lpNGMMSXKNNM5-6" value="" style="endArrow=classic;html=1;rounded=0;exitX=0.5;exitY=1;exitDx=0;exitDy=0;" edge="1" parent="3" source="3EZGCJM8jiS25kYGgKkf-66" target="3EZGCJM8jiS25kYGgKkf-67">
          <mxGeometry width="50" height="50" relative="1" as="geometry">
            <mxPoint y="500" as="sourcePoint" />
            <mxPoint x="50" y="450" as="targetPoint" />
          </mxGeometry>
        </mxCell>
        <mxCell id="wZWzXX4lpNGMMSXKNNM5-7" value="Yes" style="text;html=1;align=center;verticalAlign=middle;whiteSpace=wrap;rounded=0;" vertex="1" parent="3">
          <mxGeometry x="-40" y="528" width="60" height="30" as="geometry" />
        </mxCell>
        <mxCell id="wZWzXX4lpNGMMSXKNNM5-9" value="No" style="text;html=1;align=center;verticalAlign=middle;whiteSpace=wrap;rounded=0;" vertex="1" parent="3">
          <mxGeometry x="-30" y="608" width="60" height="30" as="geometry" />
        </mxCell>
        <mxCell id="3EZGCJM8jiS25kYGgKkf-72" value="" style="endArrow=classic;html=1;rounded=0;exitX=0;exitY=0.5;exitDx=0;exitDy=0;entryX=1;entryY=0.5;entryDx=0;entryDy=0;" parent="1" source="3EZGCJM8jiS25kYGgKkf-66" target="3EZGCJM8jiS25kYGgKkf-68" edge="1">
          <mxGeometry width="50" height="50" relative="1" as="geometry">
            <mxPoint x="435.5" y="642" as="sourcePoint" />
            <mxPoint x="485.5" y="592" as="targetPoint" />
          </mxGeometry>
        </mxCell>
        <mxCell id="3EZGCJM8jiS25kYGgKkf-73" value="" style="endArrow=classic;html=1;rounded=0;exitX=0;exitY=0.5;exitDx=0;exitDy=0;entryX=1;entryY=0.5;entryDx=0;entryDy=0;" parent="1" source="3EZGCJM8jiS25kYGgKkf-67" target="3EZGCJM8jiS25kYGgKkf-69" edge="1">
          <mxGeometry width="50" height="50" relative="1" as="geometry">
            <mxPoint x="530.5" y="633" as="sourcePoint" />
            <mxPoint x="345.5" y="621" as="targetPoint" />
            <Array as="points">
              <mxPoint x="445.5" y="682" />
            </Array>
          </mxGeometry>
        </mxCell>
      </root>
    </mxGraphModel>
  </diagram>
</mxfile>
